<?xml version="1.0" encoding="UTF-8"?>
<svg id="Layer_2" data-name="Layer 2" xmlns="http://www.w3.org/2000/svg" xmlns:xlink="http://www.w3.org/1999/xlink" viewBox="0 0 1678.01 1626.11">
  <defs>
    <style>
      .cls-1 {
        fill: url(#linear-gradient-3);
      }

      .cls-1, .cls-2, .cls-3, .cls-4, .cls-5, .cls-6, .cls-7, .cls-8 {
        mix-blend-mode: multiply;
      }

      .cls-9 {
        filter: url(#luminosity-noclip-11);
      }

      .cls-10 {
        fill: #fff;
      }

      .cls-11 {
        mask: url(#mask-10);
      }

      .cls-12 {
        font-size: 150.7px;
      }

      .cls-12, .cls-13, .cls-14, .cls-15 {
        font-family: Poppins-Bold, Poppins;
        font-weight: 700;
      }

      .cls-16 {
        filter: url(#luminosity-noclip-7);
      }

      .cls-2 {
        fill: url(#linear-gradient-11);
      }

      .cls-3 {
        fill: url(#linear-gradient-10);
      }

      .cls-17, .cls-18 {
        stroke: #000;
        stroke-miterlimit: 10;
      }

      .cls-17, .cls-18, .cls-19 {
        fill: none;
      }

      .cls-20 {
        font-size: 23.79px;
        letter-spacing: .13em;
      }

      .cls-20, .cls-21, .cls-22, .cls-23 {
        font-family: Poppins-Regular, Poppins;
      }

      .cls-4 {
        fill: url(#linear-gradient);
      }

      .cls-24 {
        filter: url(#luminosity-noclip-13);
      }

      .cls-13 {
        font-size: 69.35px;
      }

      .cls-25 {
        filter: url(#luminosity-noclip-5);
      }

      .cls-26 {
        font-size: 20.16px;
        letter-spacing: .13em;
      }

      .cls-26, .cls-27, .cls-28, .cls-29, .cls-30, .cls-31, .cls-32, .cls-33 {
        font-family: Poppins-Medium, Poppins;
        font-weight: 500;
      }

      .cls-27 {
        font-size: 7.85px;
        letter-spacing: -.25em;
      }

      .cls-34 {
        mask: url(#mask-2);
      }

      .cls-28 {
        font-size: 11.6px;
        letter-spacing: -.25em;
      }

      .cls-29 {
        font-size: 37.91px;
        letter-spacing: .13em;
      }

      .cls-35 {
        fill: #4a7e1c;
      }

      .cls-30 {
        font-size: 13.63px;
        letter-spacing: .13em;
      }

      .cls-36 {
        fill: #ea0c21;
      }

      .cls-37 {
        mask: url(#mask-13);
      }

      .cls-38 {
        fill: url(#linear-gradient-4);
      }

      .cls-38, .cls-39, .cls-40 {
        opacity: .58;
      }

      .cls-14 {
        font-size: 101.89px;
      }

      .cls-41 {
        mask: url(#mask-3);
      }

      .cls-42 {
        filter: url(#luminosity-noclip-15);
      }

      .cls-5 {
        fill: url(#linear-gradient-6);
      }

      .cls-43 {
        mask: url(#mask-9);
      }

      .cls-44 {
        fill: #111;
      }

      .cls-45 {
        clip-path: url(#clippath-1);
      }

      .cls-46 {
        mask: url(#mask-12);
      }

      .cls-21 {
        font-size: 51.7px;
        letter-spacing: .13em;
      }

      .cls-47 {
        mask: url(#mask-5);
      }

      .cls-18 {
        stroke-width: .25px;
      }

      .cls-39 {
        fill: url(#linear-gradient-2);
      }

      .cls-6 {
        fill: url(#linear-gradient-9);
      }

      .cls-48 {
        fill: #4a7d1c;
      }

      .cls-22 {
        font-size: 34.95px;
        letter-spacing: .13em;
      }

      .cls-7 {
        fill: url(#linear-gradient-8);
      }

      .cls-49 {
        filter: url(#luminosity-noclip-9);
      }

      .cls-50 {
        fill: #4a7f1c;
      }

      .cls-51 {
        mask: url(#mask-8);
      }

      .cls-52 {
        mask: url(#mask-4);
      }

      .cls-53 {
        fill: url(#linear-gradient-5);
      }

      .cls-54 {
        fill: #e5e6e7;
      }

      .cls-55 {
        clip-path: url(#clippath);
      }

      .cls-56 {
        mask: url(#mask-15);
      }

      .cls-40 {
        fill: url(#linear-gradient-7);
      }

      .cls-57 {
        mask: url(#mask-6);
      }

      .cls-58 {
        fill: #141414;
      }

      .cls-8 {
        fill: url(#linear-gradient-12);
      }

      .cls-59 {
        fill: #455442;
      }

      .cls-60 {
        filter: url(#luminosity-noclip);
      }

      .cls-31 {
        font-size: 5.34px;
        letter-spacing: -.25em;
      }

      .cls-61 {
        fill: #e6e7e8;
      }

      .cls-32 {
        font-size: 21.82px;
        letter-spacing: -.25em;
      }

      .cls-62 {
        mask: url(#mask-1);
      }

      .cls-63 {
        mask: url(#mask);
      }

      .cls-33 {
        font-size: 9.28px;
        letter-spacing: .13em;
      }

      .cls-23 {
        font-size: 97.19px;
        letter-spacing: .13em;
      }

      .cls-64 {
        mask: url(#mask-7);
      }

      .cls-65 {
        mask: url(#mask-14);
      }

      .cls-66 {
        fill: #eb0c21;
      }

      .cls-15 {
        font-size: 283.31px;
      }

      .cls-67 {
        mask: url(#mask-11);
      }

      .cls-68 {
        filter: url(#luminosity-noclip-3);
      }
    </style>
    <clipPath id="clippath">
      <path class="cls-61" d="m1671.65,451.88l-79.3-171.38c-9.36-20.22-16.38-41.47-20.39-63.39-5.98-32.71-20.69-52.52-20.69-52.52,3.43-31.71-34.29-60.86-34.29-60.86l-26.57-2.57c-54-24.86-97.71-22.29-97.71-22.29,0,0-38.17-47.27-46.29-50.57-15.58-6.34-58.37-4.65-59.12-4.62-.76-.03-43.55-1.72-59.12,4.62-8.12,3.3-46.29,50.57-46.29,50.57,0,0-43.71-2.57-97.71,22.29l-26.57,2.57s-37.71,29.14-34.29,60.86c0,0-14.71,19.8-20.69,52.52-4,21.92-11.03,43.17-20.39,63.39l-79.3,171.38c-2.3,4.97-3.24,10.46-2.72,15.91,3.17,33.04,15.23,154.25,24.09,181.95,10.29,32.14,27,69.43,23.14,99,0,0,28.29,37.29,72,1.29,0,0-3.86-113.14,1.29-140.14,5.14-27,10.29-83.57-3.86-124.71,0,0,58.29-66.86,81.22-154.29,0,0,31.93,199.29,12.64,288-19.29,88.71-55.29,277.71-56.57,330.43-1.29,52.71,2.57,198-14.14,223.71l-35.36,33.08c-2.88,2.69-4.55,6.42-4.66,10.36l-2.23,85.73c-.12,4.5,1.83,8.8,5.29,11.68l9.96,8.3,12.86,281.57s50.14,29.57,111.86,0c0,0,9-151.71,20.57-185.14,11.57-33.43,15.43-110.57,16.71-158.14,1.28-47.24,110.76-387.39,112.27-392.09,1.51,4.69,110.99,344.84,112.27,392.09,1.29,47.57,5.14,124.71,16.71,158.14,11.57,33.43,20.57,185.14,20.57,185.14,61.71,29.57,111.86,0,111.86,0l12.86-281.57,9.96-8.3c3.46-2.88,5.4-7.18,5.29-11.68l-2.23-85.73c-.1-3.94-1.78-7.67-4.65-10.36l-35.36-33.08c-16.71-25.71-12.86-171-14.14-223.71-1.29-52.71-37.29-241.71-56.57-330.43-19.29-88.71,12.64-288,12.64-288,22.93,87.43,81.22,154.29,81.22,154.29-14.14,41.14-9,97.71-3.86,124.71,5.14,27,1.29,140.14,1.29,140.14,43.71,36,72-1.29,72-1.29-3.86-29.57,12.86-66.86,23.14-99,8.86-27.69,20.92-148.91,24.09-181.95.52-5.45-.41-10.94-2.72-15.91Z"/>
    </clipPath>
    <clipPath id="clippath-1">
      <path class="cls-61" d="m780.46,436.69c-.67-12.38-3.21-24.59-7.54-36.21l-103.37-277.21s-5.99-23.98-49.96-27.98c-43.96-4-114.9-38.97-114.9-38.97l-17.65-37.97s-45.29,48.62-87.26,55.95h0c-41.95-7.35-87.21-55.94-87.21-55.94l-17.65,37.97s-70.94,34.97-114.9,38.97c-43.96,4-49.96,27.98-49.96,27.98L26.7,400.5c-4.33,11.62-6.88,23.83-7.54,36.21l-14.98,279.06c33.97,29.97,79.93,9.49,79.93,9.49,40.46-149.87,46.46-254.78,46.46-254.78,50.96-34.47,70.44-143.88,70.44-143.88l4,6.91c8.2,14.16,12.78,30.12,13.33,46.47l6.78,198.77c.88,25.84-2.2,51.65-8.96,76.6-76.5,282.55-58.12,504.03-58.12,504.03-10.99,19.98-6.99,42.96-6.99,42.96-13.99,15.99-14.99,40.96-14.99,40.96-64.94,57.95-14.99,123.89-14.99,123.89-1,28.97,13.99,59.95,13.99,59.95v174.85c93.92,44.96,115.9,0,115.9,0,0,0,13.99-187.84,32.97-249.78,18.98-61.95,5.5-40.96,6.99-108.41,1.49-66.9,107.19-393.86,108.88-399.09,1.83,5.67,107.39,332.22,108.88,399.07,1.5,67.44-11.99,46.46,6.99,108.41,18.98,61.95,32.97,249.78,32.97,249.78,0,0,21.98,44.96,115.9,0v-174.85s14.99-30.97,13.99-59.95c0,0,49.96-65.94-14.99-123.89,0,0-1-24.98-14.99-40.96,0,0,4-22.98-6.99-42.96,0,0,18.38-221.48-58.12-504.03-6.76-24.95-9.84-50.76-8.96-76.6l6.78-198.77c.56-16.35,5.14-32.31,13.33-46.47l4-6.91s19.48,109.41,70.44,143.88c0,0,5.99,104.91,46.46,254.78,0,0,45.96,20.48,79.93-9.49l-14.98-279.06Z"/>
    </clipPath>
    <filter id="luminosity-noclip" x="295.15" y="18.37" width="104.56" height="99.72" color-interpolation-filters="sRGB" filterUnits="userSpaceOnUse">
      <feFlood flood-color="#fff" result="bg"/>
      <feBlend in="SourceGraphic" in2="bg"/>
    </filter>
    <filter id="luminosity-noclip-2" x="295.15" y="-8925.09" width="104.56" height="32766" color-interpolation-filters="sRGB" filterUnits="userSpaceOnUse">
      <feFlood flood-color="#fff" result="bg"/>
      <feBlend in="SourceGraphic" in2="bg"/>
    </filter>
    <mask id="mask-1" x="295.15" y="-8925.09" width="104.56" height="32766" maskUnits="userSpaceOnUse"/>
    <linearGradient id="linear-gradient" x1="291.01" y1="66.8" x2="506.15" y2="71.52" gradientUnits="userSpaceOnUse">
      <stop offset=".16" stop-color="#000"/>
      <stop offset=".19" stop-color="#2c2c2c"/>
      <stop offset=".23" stop-color="#5d5d5d"/>
      <stop offset=".27" stop-color="#888"/>
      <stop offset=".31" stop-color="#adadad"/>
      <stop offset=".35" stop-color="#cbcbcb"/>
      <stop offset=".39" stop-color="#e2e2e2"/>
      <stop offset=".44" stop-color="#f2f2f2"/>
      <stop offset=".49" stop-color="#fbfbfb"/>
      <stop offset=".56" stop-color="#fff"/>
      <stop offset=".61" stop-color="#fbfbfb"/>
      <stop offset=".65" stop-color="#f0f0f0"/>
      <stop offset=".69" stop-color="#ddd"/>
      <stop offset=".72" stop-color="#c3c3c3"/>
      <stop offset=".76" stop-color="#a1a1a1"/>
      <stop offset=".8" stop-color="#787878"/>
      <stop offset=".83" stop-color="#474747"/>
      <stop offset=".87" stop-color="#101010"/>
      <stop offset=".88" stop-color="#000"/>
    </linearGradient>
    <mask id="mask" x="295.15" y="18.37" width="104.56" height="99.72" maskUnits="userSpaceOnUse">
      <g class="cls-60">
        <g class="cls-62">
          <path class="cls-4" d="m312.58,18.37l-17.43,37.49c24,21.61,60.14,48.15,104.52,62.23l.04-43.79c-41.93-7.4-87.13-55.93-87.13-55.93Z"/>
        </g>
      </g>
    </mask>
    <linearGradient id="linear-gradient-2" x1="291.01" y1="66.8" x2="506.15" y2="71.52" gradientUnits="userSpaceOnUse">
      <stop offset=".16" stop-color="#858585"/>
      <stop offset=".16" stop-color="#848484"/>
      <stop offset=".23" stop-color="#666"/>
      <stop offset=".3" stop-color="#4f4f4f"/>
      <stop offset=".37" stop-color="#3f3f3f"/>
      <stop offset=".45" stop-color="#363636"/>
      <stop offset=".56" stop-color="#333"/>
      <stop offset=".64" stop-color="#363636"/>
      <stop offset=".7" stop-color="#414141"/>
      <stop offset=".77" stop-color="#545454"/>
      <stop offset=".83" stop-color="#6e6e6e"/>
      <stop offset=".88" stop-color="#858585"/>
    </linearGradient>
    <filter id="luminosity-noclip-3" x="399.91" y="18.36" width="104.57" height="99.73" color-interpolation-filters="sRGB" filterUnits="userSpaceOnUse">
      <feFlood flood-color="#fff" result="bg"/>
      <feBlend in="SourceGraphic" in2="bg"/>
    </filter>
    <filter id="luminosity-noclip-4" x="399.91" y="-8925.09" width="104.57" height="32766" color-interpolation-filters="sRGB" filterUnits="userSpaceOnUse">
      <feFlood flood-color="#fff" result="bg"/>
      <feBlend in="SourceGraphic" in2="bg"/>
    </filter>
    <mask id="mask-3" x="399.91" y="-8925.09" width="104.57" height="32766" maskUnits="userSpaceOnUse"/>
    <linearGradient id="linear-gradient-3" x1="291.05" y1="64.88" x2="506.19" y2="69.6" xlink:href="#linear-gradient"/>
    <mask id="mask-2" x="399.91" y="18.36" width="104.57" height="99.73" maskUnits="userSpaceOnUse">
      <g class="cls-68">
        <g class="cls-41">
          <path class="cls-1" d="m487.05,18.36s-45.21,48.53-87.14,55.93l.04,43.8c44.39-14.08,80.53-40.62,104.53-62.24l-17.43-37.49Z"/>
        </g>
      </g>
    </mask>
    <linearGradient id="linear-gradient-4" x1="291.05" y1="64.88" x2="506.19" y2="69.6" xlink:href="#linear-gradient-2"/>
    <linearGradient id="linear-gradient-5" x1="400.46" y1="83.51" x2="399.8" y2="22.23" gradientUnits="userSpaceOnUse">
      <stop offset="0" stop-color="#fff"/>
      <stop offset=".76" stop-color="#000"/>
      <stop offset=".91" stop-color="#000"/>
    </linearGradient>
    <filter id="luminosity-noclip-5" x="1192.08" y="23.53" width="190.44" height="43.05" color-interpolation-filters="sRGB" filterUnits="userSpaceOnUse">
      <feFlood flood-color="#fff" result="bg"/>
      <feBlend in="SourceGraphic" in2="bg"/>
    </filter>
    <filter id="luminosity-noclip-6" x="1192.08" y="-8925.09" width="190.44" height="32766" color-interpolation-filters="sRGB" filterUnits="userSpaceOnUse">
      <feFlood flood-color="#fff" result="bg"/>
      <feBlend in="SourceGraphic" in2="bg"/>
    </filter>
    <mask id="mask-5" x="1192.08" y="-8925.09" width="190.44" height="32766" maskUnits="userSpaceOnUse"/>
    <linearGradient id="linear-gradient-6" x1="1192.08" y1="45.06" x2="1382.52" y2="45.06" xlink:href="#linear-gradient"/>
    <mask id="mask-4" x="1192.08" y="23.53" width="190.44" height="43.05" maskUnits="userSpaceOnUse">
      <g class="cls-25">
        <g class="cls-47">
          <path class="cls-5" d="m1382.52,66.58c-11.91-14.25-30.69-36-36.1-38.21-15.58-6.34-58.37-4.65-59.12-4.62-.76-.03-43.55-1.72-59.12,4.62-5.41,2.2-24.18,23.94-36.09,38.19l11.98-1.66c55.22-7.65,111.24-7.65,166.46.01l12,1.66Z"/>
        </g>
      </g>
    </mask>
    <linearGradient id="linear-gradient-7" x1="1192.08" y1="45.06" x2="1382.52" y2="45.06" xlink:href="#linear-gradient-2"/>
    <filter id="luminosity-noclip-7" x="161.94" y="1008.74" width="172.38" height="127.36" color-interpolation-filters="sRGB" filterUnits="userSpaceOnUse">
      <feFlood flood-color="#fff" result="bg"/>
      <feBlend in="SourceGraphic" in2="bg"/>
    </filter>
    <filter id="luminosity-noclip-8" x="161.94" y="-8925.09" width="172.38" height="32766" color-interpolation-filters="sRGB" filterUnits="userSpaceOnUse">
      <feFlood flood-color="#fff" result="bg"/>
      <feBlend in="SourceGraphic" in2="bg"/>
    </filter>
    <mask id="mask-7" x="161.94" y="-8925.09" width="172.38" height="32766" maskUnits="userSpaceOnUse"/>
    <linearGradient id="linear-gradient-8" x1="158.74" y1="1059.97" x2="319.88" y2="1077.11" xlink:href="#linear-gradient"/>
    <mask id="mask-6" x="161.94" y="1008.74" width="172.38" height="127.36" maskUnits="userSpaceOnUse">
      <g class="cls-16">
        <g class="cls-64">
          <path class="cls-7" d="m334.32,1037.81c-59.53-38.78-124.63-31.94-170.39-18.41-2.03,39.66-2.19,72.04-1.85,94.3,18.6-6.31,36.06-8.96,52.26-8.96,38.3,0,69.6,14.84,92.58,31.35,7.35-28.09,16.55-61.09,27.41-98.29Z"/>
        </g>
      </g>
    </mask>
    <filter id="luminosity-noclip-9" x="465.3" y="1008.73" width="172.38" height="127.36" color-interpolation-filters="sRGB" filterUnits="userSpaceOnUse">
      <feFlood flood-color="#fff" result="bg"/>
      <feBlend in="SourceGraphic" in2="bg"/>
    </filter>
    <filter id="luminosity-noclip-10" x="465.3" y="-8925.09" width="172.38" height="32766" color-interpolation-filters="sRGB" filterUnits="userSpaceOnUse">
      <feFlood flood-color="#fff" result="bg"/>
      <feBlend in="SourceGraphic" in2="bg"/>
    </filter>
    <mask id="mask-9" x="465.3" y="-8925.09" width="172.38" height="32766" maskUnits="userSpaceOnUse"/>
    <linearGradient id="linear-gradient-9" x1="477.82" y1="1082.13" x2="642.39" y2="1052.13" xlink:href="#linear-gradient"/>
    <mask id="mask-8" x="465.3" y="1008.73" width="172.38" height="127.36" maskUnits="userSpaceOnUse">
      <g class="cls-49">
        <g class="cls-43">
          <path class="cls-6" d="m465.3,1037.8c59.53-38.78,124.63-31.94,170.39-18.41,2.03,39.66,2.19,72.04,1.85,94.3-18.6-6.31-36.06-8.96-52.26-8.96-38.3,0-69.6,14.84-92.58,31.35-7.35-28.09-16.55-61.09-27.41-98.29Z"/>
        </g>
      </g>
    </mask>
    <filter id="luminosity-noclip-11" x="1118.92" y="521.8" width="336.75" height="155.35" color-interpolation-filters="sRGB" filterUnits="userSpaceOnUse">
      <feFlood flood-color="#fff" result="bg"/>
      <feBlend in="SourceGraphic" in2="bg"/>
    </filter>
    <filter id="luminosity-noclip-12" x="1118.92" y="-8925.09" width="336.75" height="32766" color-interpolation-filters="sRGB" filterUnits="userSpaceOnUse">
      <feFlood flood-color="#fff" result="bg"/>
      <feBlend in="SourceGraphic" in2="bg"/>
    </filter>
    <mask id="mask-11" x="1118.92" y="-8925.09" width="336.75" height="32766" maskUnits="userSpaceOnUse"/>
    <linearGradient id="linear-gradient-10" x1="1118.92" y1="599.48" x2="1455.67" y2="599.48" xlink:href="#linear-gradient"/>
    <mask id="mask-10" x="1118.92" y="521.8" width="336.75" height="155.35" maskUnits="userSpaceOnUse">
      <g class="cls-9">
        <g class="cls-67">
          <path class="cls-3" d="m1397.53,661.54c4.17-.92,8.07-2.92,11.27-5.8l46.86-42.09c-4.14-23-5.72-53.81-4.72-91.84l-25.28,32.88c-10.41,13.54-25.42,22.53-42.25,25.3-24.82,4.09-58.14,8.97-95.85,10.47h-.28s-.28,0-.28,0c-37.71-1.49-71.03-6.38-95.85-10.47-16.84-2.77-31.85-11.76-42.25-25.3l-25.28-32.88c1,38.04-.58,68.84-4.72,91.84l46.86,42.09c3.2,2.88,7.1,4.88,11.27,5.8,41.12,9.04,77.19,14.15,110.26,15.61,33.06-1.46,69.12-6.57,110.22-15.61Z"/>
        </g>
      </g>
    </mask>
    <filter id="luminosity-noclip-13" x="1520.36" y="365.92" width="125.13" height="94.11" color-interpolation-filters="sRGB" filterUnits="userSpaceOnUse">
      <feFlood flood-color="#fff" result="bg"/>
      <feBlend in="SourceGraphic" in2="bg"/>
    </filter>
    <filter id="luminosity-noclip-14" x="1520.36" y="-8925.09" width="125.13" height="32766" color-interpolation-filters="sRGB" filterUnits="userSpaceOnUse">
      <feFlood flood-color="#fff" result="bg"/>
      <feBlend in="SourceGraphic" in2="bg"/>
    </filter>
    <mask id="mask-13" x="1520.36" y="-8925.09" width="125.13" height="32766" maskUnits="userSpaceOnUse"/>
    <linearGradient id="linear-gradient-11" x1="749.57" y1="368.93" x2="867.86" y2="457.21" gradientTransform="translate(2389.97) rotate(-180) scale(1 -1)" xlink:href="#linear-gradient"/>
    <mask id="mask-12" x="1520.36" y="365.92" width="125.13" height="94.11" maskUnits="userSpaceOnUse">
      <g class="cls-24">
        <g class="cls-37">
          <path class="cls-2" d="m1626.89,365.92l18.61,40.21c-50.7,5.99-82.71,31.46-101.54,53.89-8.29-11.62-16.35-24.16-23.6-36.67,31.57-40.11,78.83-53.18,106.53-57.43Z"/>
        </g>
      </g>
    </mask>
    <filter id="luminosity-noclip-15" x="929.09" y="365.92" width="125.13" height="94.11" color-interpolation-filters="sRGB" filterUnits="userSpaceOnUse">
      <feFlood flood-color="#fff" result="bg"/>
      <feBlend in="SourceGraphic" in2="bg"/>
    </filter>
    <filter id="luminosity-noclip-16" x="929.09" y="-8925.09" width="125.13" height="32766" color-interpolation-filters="sRGB" filterUnits="userSpaceOnUse">
      <feFlood flood-color="#fff" result="bg"/>
      <feBlend in="SourceGraphic" in2="bg"/>
    </filter>
    <mask id="mask-15" x="929.09" y="-8925.09" width="125.13" height="32766" maskUnits="userSpaceOnUse"/>
    <linearGradient id="linear-gradient-12" x1="934.19" y1="368.93" x2="1052.47" y2="457.21" xlink:href="#linear-gradient"/>
    <mask id="mask-14" x="929.09" y="365.92" width="125.13" height="94.11" maskUnits="userSpaceOnUse">
      <g class="cls-42">
        <g class="cls-56">
          <path class="cls-8" d="m947.7,365.92l-18.61,40.21c50.7,5.99,82.71,31.46,101.54,53.89,8.29-11.62,16.35-24.16,23.6-36.67-31.57-40.11-78.83-53.18-106.53-57.43Z"/>
        </g>
      </g>
    </mask>
  </defs>
  <g id="Aktifkan">
    <g id="colorOne">
      <path d="m784.54,436.48c-.69-12.81-3.31-25.4-7.79-37.42l-103.31-277.05c-.87-2.99-9.15-26.75-53.47-30.78-39.5-3.59-102.43-33.25-112.18-37.94l-13.42-28.69.06-.07-3.87-8.32-.29-.37c-1.46-1.87-16.41-18.22-90.62-15.56h-.07c-73.85-2.59-88.75,13.7-90.21,15.57l-.29.37-3.87,8.32.06.07-13.42,28.69c-9.75,4.69-72.68,34.35-112.18,37.94-44.33,4.03-52.6,27.78-53.47,30.78L22.88,399.07c-4.48,12.02-7.1,24.61-7.79,37.42L0,717.52l1.48,1.31c35.53,31.35,82.31,11.04,84.29,10.16l1.77-.79.51-1.87c37.09-137.38,45.38-238.36,46.46-253.61,41.69-29.83,62.04-106.31,68.33-134.71,6.98,12.93,10.92,27.43,11.42,42.12l6.78,198.77c.86,25.24-2.11,50.61-8.82,75.39-39.61,146.3-53.34,275.87-57.88,358.81-4.53,82.64-1.08,136.75-.46,145.4-9.16,17.51-7.85,36.55-7.13,42.61-11.68,14.46-14.16,34.28-14.66,40.28-33.77,30.88-36.03,63.93-31.9,86.34,3.87,21.02,13.75,36.43,16.76,40.74-.48,26.83,11.58,54.31,14.02,59.59v176.51l2.32,1.11c28.41,13.6,52.99,20.43,73.42,20.43,8.28,0,15.88-1.12,22.77-3.37,18.66-6.09,24.88-18.43,25.13-18.95l.34-.71.06-.78c.14-1.87,14.17-188.09,32.8-248.89,12.08-39.43,11.27-46.14,9.29-62.35-1.13-9.3-2.68-22.04-2.12-47.16,1.31-58.8,85.51-325.45,104.81-385.83,19.3,60.41,103.49,327.02,104.8,385.81.56,25.13-.99,37.86-2.12,47.16-1.97,16.21-2.79,22.92,9.29,62.35,18.63,60.81,32.66,247.02,32.8,248.89l.06.78.34.71c.26.52,6.47,12.86,25.13,18.95,6.89,2.25,14.5,3.37,22.77,3.37,20.43,0,45.01-6.83,73.42-20.43l2.32-1.11v-176.51c2.44-5.28,14.5-32.76,14.02-59.59,3-4.31,12.89-19.72,16.76-40.74,4.13-22.41,1.87-55.46-31.9-86.34-.5-6-2.98-25.82-14.66-40.28.72-6.06,2.03-25.09-7.13-42.61.62-8.65,4.07-62.76-.46-145.4-4.54-82.94-18.27-212.52-57.88-358.81-6.71-24.79-9.68-50.16-8.82-75.39l6.78-198.77c.5-14.69,4.44-29.19,11.42-42.12,6.29,28.4,26.64,104.88,68.33,134.71,1.08,15.25,9.37,116.23,46.46,253.61l.51,1.87,1.77.79c1.98.88,48.76,21.19,84.29-10.16l1.48-1.31-15.09-281.03Z"/>
      <path d="m1674.83,450.48l-79.3-171.38c-9.54-20.61-16.31-41.65-20.12-62.55-5.33-29.15-17.3-48.14-20.53-52.85,2.47-32.73-34.17-61.44-35.75-62.66l-.8-.62-26.99-2.61c-48.4-22.15-88.07-22.63-97.02-22.42-8.44-10.4-38.47-46.95-46.59-50.25-15.91-6.48-57.11-5.01-60.44-4.88-3.33-.13-44.54-1.6-60.44,4.88-8.11,3.3-38.15,39.85-46.59,50.25-8.95-.21-48.62.27-97.02,22.42l-26.99,2.61-.8.62c-1.58,1.22-38.22,29.93-35.75,62.66-3.23,4.71-15.2,23.7-20.53,52.85-3.82,20.9-10.59,41.94-20.12,62.55l-79.3,171.38c-2.56,5.53-3.6,11.66-3.02,17.72,3.44,35.83,15.35,154.88,24.24,182.68,2.13,6.66,4.48,13.36,6.96,20.47,9.34,26.72,19,54.35,16.05,77.01l-.19,1.42.87,1.14c.49.64,12.11,15.69,32.21,18.04,14.62,1.71,29.7-3.73,44.8-16.17l1.33-1.1-.06-1.72c-.04-1.13-3.79-113.06,1.23-139.37,5.15-27.05,10.12-83.28-3.35-124.62,8.23-9.89,53.21-66.11,76.17-138.66,6.98,48.87,26.1,198.3,10.32,270.88-19.64,90.33-55.36,278.22-56.65,331.09-.27,10.9-.31,25.58-.37,42.58-.2,63.25-.5,158.66-13,178.96l-35.03,32.77c-3.54,3.31-5.64,7.98-5.76,12.82l-2.23,85.73c-.15,5.6,2.24,10.87,6.55,14.46l8.77,7.31,12.79,280.03.09,1.89,1.63.96c.53.32,13.31,7.75,33.94,11.52,6.55,1.2,14.35,2.08,23.1,2.08,16.62,0,36.67-3.18,58.11-13.46l1.86-.89.12-2.06c.09-1.51,9.1-151.61,20.38-184.21,11.3-32.64,15.43-104.59,16.91-159.19,1.13-41.9,90.23-322.71,108.77-380.71,18.54,58,107.64,338.81,108.77,380.71,1.48,54.61,5.61,126.55,16.91,159.19,11.28,32.6,20.29,182.69,20.38,184.21l.12,2.06,1.86.89c21.43,10.27,41.49,13.46,58.11,13.46,8.75,0,16.55-.88,23.1-2.08,20.63-3.77,33.4-11.2,33.94-11.52l1.63-.96.09-1.89,12.79-280.03,8.77-7.31c4.31-3.59,6.69-8.86,6.55-14.46l-2.23-85.73c-.13-4.84-2.23-9.52-5.76-12.82l-35.03-32.77c-12.5-20.31-12.8-115.71-13-178.96-.05-17-.1-31.69-.37-42.58-1.29-52.87-37.01-240.76-56.65-331.09-15.78-72.58,3.34-222.01,10.32-270.88,22.96,72.55,67.95,128.77,76.17,138.66-13.48,41.33-8.5,97.57-3.35,124.62,5.01,26.31,1.26,138.24,1.23,139.37l-.06,1.72,1.33,1.1c15.1,12.44,30.18,17.88,44.8,16.17,20.1-2.35,31.73-17.4,32.21-18.04l.87-1.14-.19-1.42c-2.96-22.66,6.7-50.29,16.05-77.01,2.48-7.1,4.83-13.81,6.96-20.47,8.9-27.8,20.8-146.85,24.24-182.68.58-6.06-.46-12.19-3.02-17.72Z"/>
      <path class="cls-61" d="m780.46,436.69c-.67-12.38-3.21-24.59-7.54-36.21l-103.37-277.21s-5.99-23.98-49.96-27.98c-43.96-4-114.9-38.97-114.9-38.97l-17.65-37.97s-45.29,48.62-87.26,55.95h0c-41.95-7.35-87.21-55.94-87.21-55.94l-17.65,37.97s-70.94,34.97-114.9,38.97c-43.96,4-49.96,27.98-49.96,27.98L26.7,400.5c-4.33,11.62-6.88,23.83-7.54,36.21l-14.98,279.06c33.97,29.97,79.93,9.49,79.93,9.49,40.46-149.87,46.46-254.78,46.46-254.78,50.96-34.47,70.44-143.88,70.44-143.88l4,6.91c8.2,14.16,12.78,30.12,13.33,46.47l6.78,198.77c.88,25.84-2.2,51.65-8.96,76.6-76.5,282.55-58.12,504.03-58.12,504.03-10.99,19.98-6.99,42.96-6.99,42.96-13.99,15.99-14.99,40.96-14.99,40.96-64.94,57.95-14.99,123.89-14.99,123.89-1,28.97,13.99,59.95,13.99,59.95v174.85c93.92,44.96,115.9,0,115.9,0,0,0,13.99-187.84,32.97-249.78,18.98-61.95,5.5-40.96,6.99-108.41,1.49-66.9,107.19-393.86,108.88-399.09,1.83,5.67,107.39,332.22,108.88,399.07,1.5,67.44-11.99,46.46,6.99,108.41,18.98,61.95,32.97,249.78,32.97,249.78,0,0,21.98,44.96,115.9,0v-174.85s14.99-30.97,13.99-59.95c0,0,49.96-65.94-14.99-123.89,0,0-1-24.98-14.99-40.96,0,0,4-22.98-6.99-42.96,0,0,18.38-221.48-58.12-504.03-6.76-24.95-9.84-50.76-8.96-76.6l6.78-198.77c.56-16.35,5.14-32.31,13.33-46.47l4-6.91s19.48,109.41,70.44,143.88c0,0,5.99,104.91,46.46,254.78,0,0,45.96,20.48,79.93-9.49l-14.98-279.06Z"/>
      <g>
        <path class="cls-61" d="m1671.65,451.88l-79.3-171.38c-9.36-20.22-16.38-41.47-20.39-63.39-5.98-32.71-20.69-52.52-20.69-52.52,3.43-31.71-34.29-60.86-34.29-60.86l-26.57-2.57c-54-24.86-97.71-22.29-97.71-22.29,0,0-38.17-47.27-46.29-50.57-15.58-6.34-58.37-4.65-59.12-4.62-.76-.03-43.55-1.72-59.12,4.62-8.12,3.3-46.29,50.57-46.29,50.57,0,0-43.71-2.57-97.71,22.29l-26.57,2.57s-37.71,29.14-34.29,60.86c0,0-14.71,19.8-20.69,52.52-4,21.92-11.03,43.17-20.39,63.39l-79.3,171.38c-2.3,4.97-3.24,10.46-2.72,15.91,3.17,33.04,15.23,154.25,24.09,181.95,10.29,32.14,27,69.43,23.14,99,0,0,28.29,37.29,72,1.29,0,0-3.86-113.14,1.29-140.14,5.14-27,10.29-83.57-3.86-124.71,0,0,58.29-66.86,81.22-154.29,0,0,31.93,199.29,12.64,288-19.29,88.71-55.29,277.71-56.57,330.43-1.29,52.71,2.57,198-14.14,223.71l-35.36,33.08c-2.88,2.69-4.55,6.42-4.66,10.36l-2.23,85.73c-.12,4.5,1.83,8.8,5.29,11.68l9.96,8.3,12.86,281.57s50.14,29.57,111.86,0c0,0,9-151.71,20.57-185.14,11.57-33.43,15.43-110.57,16.71-158.14,1.28-47.24,110.76-387.39,112.27-392.09,1.51,4.69,110.99,344.84,112.27,392.09,1.29,47.57,5.14,124.71,16.71,158.14,11.57,33.43,20.57,185.14,20.57,185.14,61.71,29.57,111.86,0,111.86,0l12.86-281.57,9.96-8.3c3.46-2.88,5.4-7.18,5.29-11.68l-2.23-85.73c-.1-3.94-1.78-7.67-4.65-10.36l-35.36-33.08c-16.71-25.71-12.86-171-14.14-223.71-1.29-52.71-37.29-241.71-56.57-330.43-19.29-88.71,12.64-288,12.64-288,22.93,87.43,81.22,154.29,81.22,154.29-14.14,41.14-9,97.71-3.86,124.71,5.14,27,1.29,140.14,1.29,140.14,43.71,36,72-1.29,72-1.29-3.86-29.57,12.86-66.86,23.14-99,8.86-27.69,20.92-148.91,24.09-181.95.52-5.45-.41-10.94-2.72-15.91Z"/>
        <g class="cls-55">
          <g>
            <g>
              <g>
                <g id="REd_color_1" data-name="REd color 1">
                  <path class="cls-48" d="m1287.35,643.31l127.64-42.64v-151.5c0-160.71,61.5-118.29,61.5-118.29l40.62,382.65c-26.58,7.24-49.09,10.65-83.63,49.51,0,0,6.45,55.76,12.7,122.41,4.16,50.48,7.8,125.74,11.71,212.14.04,11.01,6.72,6.3,6.27,15.37l1.89-.35s0,.04,0,.06l-178.7,32.51v-428.31h-.05l.05-73.57Z"/>
                </g>
                <path d="m1070.71,666.7l-86.5,443.48,104.05,33.57,12.34-13.86c8.99-269.58,36.42-416.88,36.7-418.43l-6.56-9.56-60.04-35.2Z"/>
                <path class="cls-50" d="m1125.73,710.16s-28.29,155.57-38.57,419.14l-79.71-25.71,81-415.29,37.29,21.86Z"/>
                <path class="cls-35" d="m1287.24,643.31l-127.64-33.86v-160.29c0-160.71-61.5-118.29-61.5-118.29l-40.62,382.65c26.58,7.24,52.03,12.39,86.57,51.25,0,0-7.36,50.59-13.6,117.24-4.16,50.48-9.65,139.91-13.56,226.32-.04,11.02-6.91-4.45-6.46,4.63l-1.89-.35s0,.04,0,.06l178.7,32.51v-428.31h.05l-.05-73.57Z"/>
              </g>
              <g>
                <path d="m1503.87,666.7l86.5,443.48-104.05,33.57-12.34-13.86c-4.54-261.62-34.96-416.03-35.24-417.58l5.09-10.41,60.04-35.2Z"/>
                <path class="cls-50" d="m1448.85,710.16s28.29,155.57,38.57,419.14l79.71-25.71-81-415.29-37.29,21.86Z"/>
              </g>
            </g>
            <g>
              <g>
                <polygon class="cls-50" points="1016.89 1096.01 1287.29 1145.19 1287.24 1675.22 964.17 1655.94 964.17 1326.79 1016.89 1096.01"/>
                <polygon points="964.56 87.3 818.63 505.35 899.44 789.52 999.1 789.52 955.18 474.1 1041.21 279.29 1287.29 248.33 1287.29 -37.38 964.56 87.3"/>
                <polygon class="cls-50" points="984.74 777.02 942.31 472.31 1032.63 267.77 1287.29 235.74 1287.29 -23.98 974.45 96.88 831.74 505.74 908.88 777.02 984.74 777.02"/>
              </g>
              <g>
                <polygon class="cls-50" points="1557.7 1096.01 1287.29 1145.19 1287.35 1675.22 1610.42 1655.94 1610.42 1326.79 1557.7 1096.01"/>
                <polygon points="1610.03 87.3 1755.95 505.35 1675.15 789.52 1575.49 789.52 1619.4 474.1 1533.38 279.29 1287.29 248.33 1287.29 -37.38 1610.03 87.3"/>
                <polygon class="cls-50" points="1589.85 777.02 1632.28 472.31 1541.95 267.77 1287.29 235.74 1287.29 -23.98 1600.13 96.88 1742.85 505.74 1665.7 777.02 1589.85 777.02"/>
              </g>
            </g>
          </g>
        </g>
      </g>
      <path class="cls-19" d="m1671.65,451.94l-79.3-171.38c-9.36-20.22-16.38-41.47-20.39-63.39-5.98-32.71-20.69-52.52-20.69-52.52,3.43-31.71-34.29-60.86-34.29-60.86l-26.57-2.57c-54-24.86-97.71-22.29-97.71-22.29,0,0-38.17-47.27-46.29-50.57-15.58-6.34-58.37-4.65-59.12-4.62-.76-.03-43.55-1.72-59.12,4.62-8.12,3.3-46.29,50.57-46.29,50.57,0,0-43.71-2.57-97.71,22.29l-26.57,2.57s-37.71,29.14-34.29,60.86c0,0-14.71,19.8-20.69,52.52-4,21.92-11.03,43.17-20.39,63.39l-79.3,171.38c-2.3,4.97-3.24,10.46-2.72,15.91,3.17,33.04,15.23,154.25,24.09,181.95,10.29,32.14,27,69.43,23.14,99,0,0,28.29,37.29,72,1.29,0,0-3.86-113.14,1.29-140.14,5.14-27,10.29-83.57-3.86-124.71,0,0,58.29-66.86,81.22-154.29,0,0,31.93,199.29,12.64,288-19.29,88.71-55.29,277.71-56.57,330.43-1.29,52.71,2.57,198-14.14,223.71l-35.36,33.08c-2.88,2.69-4.55,6.42-4.66,10.36l-2.23,85.73c-.12,4.5,1.83,8.8,5.29,11.68l9.96,8.3,12.86,281.57s50.14,29.57,111.86,0c0,0,9-151.71,20.57-185.14,11.57-33.43,15.43-110.57,16.71-158.14,1.28-47.24,110.76-387.39,112.27-392.09,1.51,4.69,110.99,344.84,112.27,392.09,1.29,47.57,5.14,124.71,16.71,158.14,11.57,33.43,20.57,185.14,20.57,185.14,61.71,29.57,111.86,0,111.86,0l12.86-281.57,9.96-8.3c3.46-2.88,5.4-7.18,5.29-11.68l-2.23-85.73c-.1-3.94-1.78-7.67-4.65-10.36l-35.36-33.08c-16.71-25.71-12.86-171-14.14-223.71-1.29-52.71-37.29-241.71-56.57-330.43-19.29-88.71,12.64-288,12.64-288,22.93,87.43,81.22,154.29,81.22,154.29-14.14,41.14-9,97.71-3.86,124.71,5.14,27,1.29,140.14,1.29,140.14,43.71,36,72-1.29,72-1.29-3.86-29.57,12.86-66.86,23.14-99,8.86-27.69,20.92-148.91,24.09-181.95.52-5.45-.41-10.94-2.72-15.91Z"/>
      <path class="cls-19" d="m1671.65,451.94l-79.3-171.38c-9.36-20.22-16.38-41.47-20.39-63.39-5.98-32.71-20.69-52.52-20.69-52.52,3.43-31.71-34.29-60.86-34.29-60.86l-26.57-2.57c-54-24.86-97.71-22.29-97.71-22.29,0,0-38.17-47.27-46.29-50.57-15.58-6.34-58.37-4.65-59.12-4.62-.76-.03-43.55-1.72-59.12,4.62-8.12,3.3-46.29,50.57-46.29,50.57,0,0-43.71-2.57-97.71,22.29l-26.57,2.57s-37.71,29.14-34.29,60.86c0,0-14.71,19.8-20.69,52.52-4,21.92-11.03,43.17-20.39,63.39l-79.3,171.38c-2.3,4.97-3.24,10.46-2.72,15.91,3.17,33.04,15.23,154.25,24.09,181.95,10.29,32.14,27,69.43,23.14,99,0,0,28.29,37.29,72,1.29,0,0-3.86-113.14,1.29-140.14,5.14-27,10.29-83.57-3.86-124.71,0,0,58.29-66.86,81.22-154.29,0,0,31.93,199.29,12.64,288-19.29,88.71-55.29,277.71-56.57,330.43-1.29,52.71,2.57,198-14.14,223.71l-35.36,33.08c-2.88,2.69-4.55,6.42-4.66,10.36l-2.23,85.73c-.12,4.5,1.83,8.8,5.29,11.68l9.96,8.3,12.86,281.57s50.14,29.57,111.86,0c0,0,9-151.71,20.57-185.14,11.57-33.43,15.43-110.57,16.71-158.14,1.28-47.24,110.76-387.39,112.27-392.09,1.51,4.69,110.99,344.84,112.27,392.09,1.29,47.57,5.14,124.71,16.71,158.14,11.57,33.43,20.57,185.14,20.57,185.14,61.71,29.57,111.86,0,111.86,0l12.86-281.57,9.96-8.3c3.46-2.88,5.4-7.18,5.29-11.68l-2.23-85.73c-.1-3.94-1.78-7.67-4.65-10.36l-35.36-33.08c-16.71-25.71-12.86-171-14.14-223.71-1.29-52.71-37.29-241.71-56.57-330.43-19.29-88.71,12.64-288,12.64-288,22.93,87.43,81.22,154.29,81.22,154.29-14.14,41.14-9,97.71-3.86,124.71,5.14,27,1.29,140.14,1.29,140.14,43.71,36,72-1.29,72-1.29-3.86-29.57,12.86-66.86,23.14-99,8.86-27.69,20.92-148.91,24.09-181.95.52-5.45-.41-10.94-2.72-15.91Z"/>
      <path class="cls-19" d="m780.46,436.69c-.67-12.38-3.21-24.59-7.54-36.21l-103.37-277.21s-5.99-23.98-49.96-27.98c-43.96-4-114.9-38.97-114.9-38.97l-17.65-37.97s-45.29,48.62-87.26,55.95h0c-41.95-7.35-87.21-55.94-87.21-55.94l-17.65,37.97s-70.94,34.97-114.9,38.97c-43.96,4-49.96,27.98-49.96,27.98L26.7,400.5c-4.33,11.62-6.88,23.83-7.54,36.21l-14.98,279.06c33.97,29.97,79.93,9.49,79.93,9.49,40.46-149.87,46.46-254.78,46.46-254.78,50.96-34.47,70.44-143.88,70.44-143.88l4,6.91c8.2,14.16,12.78,30.12,13.33,46.47l6.78,198.77c.88,25.84-2.2,51.65-8.96,76.6-76.5,282.55-58.12,504.03-58.12,504.03-10.99,19.98-6.99,42.96-6.99,42.96-13.99,15.99-14.99,40.96-14.99,40.96-64.94,57.95-14.99,123.89-14.99,123.89-1,28.97,13.99,59.95,13.99,59.95v174.85c93.92,44.96,115.9,0,115.9,0,0,0,13.99-187.84,32.97-249.78,18.98-61.95,5.5-40.96,6.99-108.41,1.49-66.9,107.19-393.86,108.88-399.09,1.83,5.67,107.39,332.22,108.88,399.07,1.5,67.44-11.99,46.46,6.99,108.41,18.98,61.95,32.97,249.78,32.97,249.78,0,0,21.98,44.96,115.9,0v-174.85s14.99-30.97,13.99-59.95c0,0,49.96-65.94-14.99-123.89,0,0-1-24.98-14.99-40.96,0,0,4-22.98-6.99-42.96,0,0,18.38-221.48-58.12-504.03-6.76-24.95-9.84-50.76-8.96-76.6l6.78-198.77c.56-16.35,5.14-32.31,13.33-46.47l4-6.91s19.48,109.41,70.44,143.88c0,0,5.99,104.91,46.46,254.78,0,0,45.96,20.48,79.93-9.49l-14.98-279.06Z"/>
      <path class="cls-19" d="m780.46,436.69c-.67-12.38-3.21-24.59-7.54-36.21l-103.37-277.21s-5.99-23.98-49.96-27.98c-43.96-4-114.9-38.97-114.9-38.97l-17.65-37.97s-45.29,48.62-87.26,55.95h0c-41.95-7.35-87.21-55.94-87.21-55.94l-17.65,37.97s-70.94,34.97-114.9,38.97c-43.96,4-49.96,27.98-49.96,27.98L26.7,400.5c-4.33,11.62-6.88,23.83-7.54,36.21l-14.98,279.06c33.97,29.97,79.93,9.49,79.93,9.49,40.46-149.87,46.46-254.78,46.46-254.78,50.96-34.47,70.44-143.88,70.44-143.88l4,6.91c8.2,14.16,12.78,30.12,13.33,46.47l6.78,198.77c.88,25.84-2.2,51.65-8.96,76.6-76.5,282.55-58.12,504.03-58.12,504.03-10.99,19.98-6.99,42.96-6.99,42.96-13.99,15.99-14.99,40.96-14.99,40.96-64.94,57.95-14.99,123.89-14.99,123.89-1,28.97,13.99,59.95,13.99,59.95v174.85c93.92,44.96,115.9,0,115.9,0,0,0,13.99-187.84,32.97-249.78,18.98-61.95,5.5-40.96,6.99-108.41,1.49-66.9,107.19-393.86,108.88-399.09,1.83,5.67,107.39,332.22,108.88,399.07,1.5,67.44-11.99,46.46,6.99,108.41,18.98,61.95,32.97,249.78,32.97,249.78,0,0,21.98,44.96,115.9,0v-174.85s14.99-30.97,13.99-59.95c0,0,49.96-65.94-14.99-123.89,0,0-1-24.98-14.99-40.96,0,0,4-22.98-6.99-42.96,0,0,18.38-221.48-58.12-504.03-6.76-24.95-9.84-50.76-8.96-76.6l6.78-198.77c.56-16.35,5.14-32.31,13.33-46.47l4-6.91s19.48,109.41,70.44,143.88c0,0,5.99,104.91,46.46,254.78,0,0,45.96,20.48,79.93-9.49l-14.98-279.06Z"/>
      <path class="cls-19" d="m780.46,436.69c-.67-12.38-3.21-24.59-7.54-36.21l-103.37-277.21s-5.99-23.98-49.96-27.98c-43.96-4-114.9-38.97-114.9-38.97l-17.65-37.97s-45.29,48.62-87.26,55.95h0c-41.95-7.35-87.21-55.94-87.21-55.94l-17.65,37.97s-70.94,34.97-114.9,38.97c-43.96,4-49.96,27.98-49.96,27.98L26.7,400.5c-4.33,11.62-6.88,23.83-7.54,36.21l-14.98,279.06c33.97,29.97,79.93,9.49,79.93,9.49,40.46-149.87,46.46-254.78,46.46-254.78,50.96-34.47,70.44-143.88,70.44-143.88l4,6.91c8.2,14.16,12.78,30.12,13.33,46.47l6.78,198.77c.88,25.84-2.2,51.65-8.96,76.6-76.5,282.55-58.12,504.03-58.12,504.03-10.99,19.98-6.99,42.96-6.99,42.96-13.99,15.99-14.99,40.96-14.99,40.96-64.94,57.95-14.99,123.89-14.99,123.89-1,28.97,13.99,59.95,13.99,59.95v174.85c93.92,44.96,115.9,0,115.9,0,0,0,13.99-187.84,32.97-249.78,18.98-61.95,5.5-40.96,6.99-108.41,1.49-66.9,107.19-393.86,108.88-399.09,1.83,5.67,107.39,332.22,108.88,399.07,1.5,67.44-11.99,46.46,6.99,108.41,18.98,61.95,32.97,249.78,32.97,249.78,0,0,21.98,44.96,115.9,0v-174.85s14.99-30.97,13.99-59.95c0,0,49.96-65.94-14.99-123.89,0,0-1-24.98-14.99-40.96,0,0,4-22.98-6.99-42.96,0,0,18.38-221.48-58.12-504.03-6.76-24.95-9.84-50.76-8.96-76.6l6.78-198.77c.56-16.35,5.14-32.31,13.33-46.47l4-6.91s19.48,109.41,70.44,143.88c0,0,5.99,104.91,46.46,254.78,0,0,45.96,20.48,79.93-9.49l-14.98-279.06Z"/>
      <g>
        <path class="cls-61" d="m780.46,436.69c-.67-12.38-3.21-24.59-7.54-36.21l-103.37-277.21s-5.99-23.98-49.96-27.98c-43.96-4-114.9-38.97-114.9-38.97l-17.65-37.97s-45.29,48.62-87.26,55.95h0c-41.95-7.35-87.21-55.94-87.21-55.94l-17.65,37.97s-70.94,34.97-114.9,38.97c-43.96,4-49.96,27.98-49.96,27.98L26.7,400.5c-4.33,11.62-6.88,23.83-7.54,36.21l-14.98,279.06c33.97,29.97,79.93,9.49,79.93,9.49,40.46-149.87,46.46-254.78,46.46-254.78,50.96-34.47,70.44-143.88,70.44-143.88l4,6.91c8.2,14.16,12.78,30.12,13.33,46.47l6.78,198.77c.88,25.84-2.2,51.65-8.96,76.6-76.5,282.55-58.12,504.03-58.12,504.03-10.99,19.98-6.99,42.96-6.99,42.96-13.99,15.99-14.99,40.96-14.99,40.96-64.94,57.95-14.99,123.89-14.99,123.89-1,28.97,13.99,59.95,13.99,59.95v174.85c93.92,44.96,115.9,0,115.9,0,0,0,13.99-187.84,32.97-249.78,18.98-61.95,5.5-40.96,6.99-108.41,1.49-66.9,107.19-393.86,108.88-399.09,1.83,5.67,107.39,332.22,108.88,399.07,1.5,67.44-11.99,46.46,6.99,108.41,18.98,61.95,32.97,249.78,32.97,249.78,0,0,21.98,44.96,115.9,0v-174.85s14.99-30.97,13.99-59.95c0,0,49.96-65.94-14.99-123.89,0,0-1-24.98-14.99-40.96,0,0,4-22.98-6.99-42.96,0,0,18.38-221.48-58.12-504.03-6.76-24.95-9.84-50.76-8.96-76.6l6.78-198.77c.56-16.35,5.14-32.31,13.33-46.47l4-6.91s19.48,109.41,70.44,143.88c0,0,5.99,104.91,46.46,254.78,0,0,45.96,20.48,79.93-9.49l-14.98-279.06Z"/>
        <g class="cls-45">
          <g>
            <g>
              <g>
                <g>
                  <path class="cls-59" d="m225.1,695.88l-.12-2.71-51.02-30.16-71.31,427.44,67.52,27,1.49-5.38c31.87-114.84,44.7-221.83,49.85-291.37,5.58-75.39,3.6-124.34,3.58-124.82Z"/>
                  <path class="cls-35" d="m220.1,696.09s8.24,193.09-53.25,414.64l-58.6-23.44,69.45-416.28,42.41,25.07Z"/>
                </g>
                <path class="cls-35" d="m246.89,733.09s6,192.5-49.93,354.21l202.86,34.05v-453.54c-35.64,2.57-159.78-41.14-159.78-41.14-23.14-65.57,5.14-221.79,5.14-221.79,31.82-104.14-38.57-158.14-38.57-158.14l-39.75,425.36c21.87,18.88,44.47,48.4,80.04,61Z"/>
              </g>
              <g>
                <g>
                  <path class="cls-58" d="m574.53,695.88l.12-2.71,51.02-30.16,71.31,427.44-67.52,27-1.49-5.38c-31.87-114.84-44.7-221.83-49.85-291.37-5.58-75.39-3.6-124.34-3.58-124.82Z"/>
                  <path class="cls-35" d="m579.53,696.09s-8.24,193.09,53.25,414.64l58.6-23.44-69.45-416.28-42.41,25.07Z"/>
                </g>
                <path class="cls-35" d="m556.11,728.85s-7.23,205.3,48.69,367.01l-204.99,25.48v-453.54c35.64,2.57,159.78-41.14,159.78-41.14,23.14-65.57-5.14-221.79-5.14-221.79-31.82-104.14,38.57-158.14,38.57-158.14l39.75,425.36c-21.87,18.88-41.1,44.16-76.67,56.76Z"/>
              </g>
            </g>
            <g>
              <g>
                <polygon class="cls-50" points="129.46 1072.16 399.87 1121.34 399.81 1651.38 76.74 1632.09 76.74 1302.95 129.46 1072.16"/>
                <polygon class="cls-50" points="673.68 1087.29 399.81 1121.34 399.87 1651.38 722.94 1632.09 722.94 1302.95 673.68 1087.29"/>
              </g>
              <g>
                <polygon class="cls-59" points="138.36 39.38 15.67 253.1 -44.43 701.17 39.7 779.47 62.21 435.78 162.32 142.95 197.87 142.95 261.12 195.01 399.81 194.96 399.81 -23.92 138.36 39.38"/>
                <polygon class="cls-50" points="31.1 757.8 52.32 433.8 155.17 132.95 201.46 132.95 265.71 185.84 399.83 185.66 399.87 -13.62 144.89 48.09 25.32 256.38 -33.83 697.38 31.1 757.8"/>
              </g>
              <g>
                <polygon class="cls-44" points="661.38 39.38 784.07 253.1 844.16 701.17 760.03 779.47 737.52 435.78 637.41 142.95 601.86 142.95 538.67 194.96 399.81 194.96 399.92 -23.92 661.38 39.38"/>
                <polygon class="cls-50" points="768.63 757.8 747.42 433.8 644.56 132.95 598.27 132.95 534.05 185.81 399.83 185.66 399.87 -13.62 654.84 48.09 774.42 256.38 833.56 697.38 768.63 757.8"/>
              </g>
            </g>
          </g>
        </g>
      </g>
      <path class="cls-19" d="m780.46,436.69c-.67-12.38-3.21-24.59-7.54-36.21l-103.37-277.21s-5.99-23.98-49.96-27.98c-43.96-4-114.9-38.97-114.9-38.97l-17.65-37.97s-45.29,48.62-87.26,55.95h0c-41.95-7.35-87.21-55.94-87.21-55.94l-17.65,37.97s-70.94,34.97-114.9,38.97c-43.96,4-49.96,27.98-49.96,27.98L26.7,400.5c-4.33,11.62-6.88,23.83-7.54,36.21l-14.98,279.06c33.97,29.97,79.93,9.49,79.93,9.49,40.46-149.87,46.46-254.78,46.46-254.78,50.96-34.47,70.44-143.88,70.44-143.88l4,6.91c8.2,14.16,12.78,30.12,13.33,46.47l6.78,198.77c.88,25.84-2.2,51.65-8.96,76.6-76.5,282.55-58.12,504.03-58.12,504.03-10.99,19.98-6.99,42.96-6.99,42.96-13.99,15.99-14.99,40.96-14.99,40.96-64.94,57.95-14.99,123.89-14.99,123.89-1,28.97,13.99,59.95,13.99,59.95v174.85c93.92,44.96,115.9,0,115.9,0,0,0,13.99-187.84,32.97-249.78,18.98-61.95,5.5-40.96,6.99-108.41,1.49-66.9,107.19-393.86,108.88-399.09,1.83,5.67,107.39,332.22,108.88,399.07,1.5,67.44-11.99,46.46,6.99,108.41,18.98,61.95,32.97,249.78,32.97,249.78,0,0,21.98,44.96,115.9,0v-174.85s14.99-30.97,13.99-59.95c0,0,49.96-65.94-14.99-123.89,0,0-1-24.98-14.99-40.96,0,0,4-22.98-6.99-42.96,0,0,18.38-221.48-58.12-504.03-6.76-24.95-9.84-50.76-8.96-76.6l6.78-198.77c.56-16.35,5.14-32.31,13.33-46.47l4-6.91s19.48,109.41,70.44,143.88c0,0,5.99,104.91,46.46,254.78,0,0,45.96,20.48,79.93-9.49l-14.98-279.06Z"/>
      <path class="cls-35" d="m248.6,610.66s119,42.29,151.21,42.29,149.93-42.29,149.93-42.29c0,0-118.15,25.6-149.93,26.8-31.78,1.2-151.21-26.8-151.21-26.8Z"/>
      <path class="cls-48" d="m663.43,1241.51c.1,1.14.13,1.79.13,1.79,3.57,3.18,6.77,6.39,9.67,9.61-22.42,11.77-33.79,23.33-33.79,34.35,0,27.04,0,77.38,38.42,83.95l.71.12c-.09,6.05-.81,12.11-1.88,17.9-19.78-2.14-48.36-14.65-58.43-66.68-9.69-50.08,20.16-71.75,45.17-81.05Z"/>
      <path class="cls-48" d="m136.19,1241.52c-.1,1.14-.13,1.79-.13,1.79-3.57,3.18-6.77,6.39-9.67,9.61,22.42,11.77,33.79,23.33,33.79,34.35,0,27.04,0,77.38-38.42,83.95l-.71.12c.09,6.05.81,12.11,1.88,17.9,19.78-2.14,48.36-14.65,58.43-66.68,9.69-50.08-20.16-71.75-45.17-81.05Z"/>
      <g>
        <path class="cls-35" d="m1098.1,330.95s12.46,77.77,17.11,157.76c5.63-5.91,11.62-14.55,16.99-27.23,10.34-24.39-15.12-83.23,15.82-126.68,12.12-17.01,6.14-71.18,6.14-71.18l-56.07,67.32Z"/>
        <path class="cls-35" d="m1476.49,330.95s-12.46,77.77-17.11,157.76c-5.63-5.91-11.62-14.55-16.99-27.23-10.34-24.39,15.12-83.23-15.82-126.68-12.12-17.01-6.14-71.18-6.14-71.18l56.07,67.32Z"/>
      </g>
    </g>
    <g id="baseColor">
      <path class="cls-10" d="m614.6,1212.32c10.02-6.63,22.34-8.93,34.99-8.77,8.96,11.02,12.2,25.7,13.35,33.78l-.94.35c-16.4,6.1-29.01,15.07-37.47,26.65-11.38,15.59-14.84,35.44-10.28,59,10.81,55.85,43.09,67.8,61.63,69.91-4.08,18.89-11.33,33.89-11.33,33.89-35.97-3.5-78.1-33.47-88.59-102.91-9.96-65.9,13.55-95.29,38.63-111.9Z"/>
      <path class="cls-10" d="m185.02,1212.34c-10.02-6.63-22.34-8.93-34.99-8.77-8.96,11.02-12.2,25.7-13.35,33.78l.94.35c16.4,6.1,29.01,15.07,37.47,26.65,11.38,15.59,14.84,35.44,10.28,59-10.81,55.85-43.09,67.8-61.63,69.91,4.08,18.89,11.33,33.89,11.33,33.89,35.97-3.5,78.1-33.47,88.59-102.91,9.96-65.9-13.55-95.29-38.63-111.9Z"/>
      <g>
        <path class="cls-54" d="m345.88,845.66c8.23,25.86,8.85,94.57,7.97,146.79,19.8-65.9,38.07-123.16,43.99-141.58h0s-109.9-110.12-109.9-110.12c0,0,43.96,60.95,57.95,104.91Z"/>
        <path class="cls-54" d="m453.74,845.64c-8.23,25.86-8.85,94.57-7.97,146.79-19.8-65.9-38.07-123.16-43.99-141.58h0s109.9-110.12,109.9-110.12c0,0-43.96,60.95-57.95,104.91Z"/>
      </g>
      <path class="cls-61" d="m618.84,95.21c.25.02.51.05.76.08,5.2.47,9.86,1.23,14.05,2.19v9.33c0,7.1,3.09,13.82,8.49,18.43l5.56,4.76c4.42,3.78,10.03,5.83,15.78,5.83,1.06,0,2.12-.07,3.18-.21l7.15-.95,4.33,11.61c-1.51.59-3.13,1.02-4.87,1.25l-26.61,3.53c-5.68.75-11.42-.95-15.77-4.67l-5.56-4.76c-4.48-3.83-7.06-9.44-7.06-15.33v-26.22c0-1.7.2-3.32.57-4.86Z"/>
      <path class="cls-61" d="m180.79,95.23c-.25.02-.51.05-.76.08-5.2.47-9.86,1.23-14.05,2.19v9.33c0,7.1-3.09,13.82-8.49,18.43l-5.56,4.76c-4.42,3.78-10.03,5.83-15.78,5.83-1.06,0-2.12-.07-3.18-.21l-7.15-.95-4.33,11.61c1.51.59,3.13,1.02,4.87,1.25l26.61,3.53c5.68.75,11.42-.95,15.77-4.67l5.56-4.76c4.48-3.83,7.06-9.44,7.06-15.33v-26.22c0-1.7-.2-3.32-.57-4.86Z"/>
      <path d="m399.84,122.63v.03s-.53-.17-1.51-.51v612.98l2.32,6.49V122.36c-.43.15-.71.24-.81.27Z"/>
      <path class="cls-54" d="m1507.56,1349.23c-1-24.9-16.91-159.39-24.03-218.72-2.16-18.02-11.37-34.43-25.62-45.67l-79.32-62.59c-11.49-8.96-20.15-21.06-24.93-34.82l-65.52-193.56-67.22,193.56c-4.78,13.77-13.44,25.86-24.93,34.82l-79.32,62.59c-14.24,11.24-23.45,27.66-25.62,45.67-7.12,59.32-23.04,193.81-24.03,218.72-.91,22.67-3.52,177.16-4.99,266.23,19.93,3.09,46.52,2.33,75.7-11.65,0,0,9-151.71,20.57-185.14,11.57-33.43,15.43-110.57,16.71-158.14,1.28-47.24,110.76-387.39,112.27-392.09,1.51,4.69,110.99,344.84,112.27,392.09,1.29,47.57,5.14,124.71,16.71,158.14,11.57,33.43,20.57,185.14,20.57,185.14,29.18,13.98,55.77,14.74,75.7,11.65-1.46-89.07-4.08-243.55-4.99-266.23Z"/>
      <path class="cls-10" d="m1536.24,1174.66l8.16,7.64,24.27,134.01-6.13,5.11c-4.49-25.22-11.47-59.94-20.69-92.19-5.73-20.06-6.76-38.67-5.61-54.57Z"/>
      <path class="cls-54" d="m1038.35,1174.66l-8.16,7.64-24.27,134.01,6.13,5.11c4.49-25.22,11.47-59.94,20.69-92.19,5.73-20.06,6.76-38.67,5.61-54.57Z"/>
      <path class="cls-54" d="m1659.7,438.09c1.9,0,3.78.07,5.63.21l4.01,8.67-25.91,16.88c-4.1,2.67-6.46,6.72-6.48,11.12-.01,4.39,2.31,8.45,6.39,11.14l27.38,18.08c-.54,5.22-1.12,10.73-1.74,16.44-3.02.38-6.12.6-9.29.6-30.53,0-55.29-18.61-55.29-41.57s24.75-41.57,55.29-41.57Z"/>
      <path class="cls-61" d="m914.88,438.09c-1.9,0-3.78.07-5.63.21l-4.01,8.67,25.91,16.88c4.1,2.67,6.46,6.72,6.48,11.12.01,4.39-2.31,8.45-6.39,11.14l-27.38,18.08c.54,5.22,1.12,10.73,1.74,16.44,3.02.38,6.12.6,9.29.6,30.53,0,55.29-18.61,55.29-41.57s-24.75-41.57-55.29-41.57Z"/>
      <path class="cls-54" d="m1084.17,101.23l-8.58.83c.83,4.76.18,8.74-1.93,11.83-7.9,11.56-24.79,33.32-49.2,49.19l-1.22.79c.02.26.04.52.07.78,0,0-6.25,8.42-12.26,23.35,44.65-13.47,74.08-65.52,86.69-92.55-4.43,1.74-8.96,3.66-13.57,5.78Z"/>
      <path class="cls-54" d="m1490.42,101.23l8.58.83c-.83,4.76-.18,8.74,1.93,11.83,7.9,11.56,24.79,33.32,49.2,49.19l1.22.79c-.02.26-.04.52-.07.78,0,0,6.25,8.42,12.26,23.35-44.65-13.47-74.08-65.52-86.69-92.55,4.43,1.74,8.96,3.66,13.57,5.78Z"/>
      <path class="cls-61" d="m1287.31,146.3c49,.1,82.85-10.08,105.19-21.23-2.08-2.01-4.91-3.27-8.1-3.27h-194.22c-3.19,0-6.02,1.26-8.1,3.27,22.34,11.15,56.19,21.33,105.19,21.23h0s.01,0,.02,0h.02Z"/>
      <path class="cls-61" d="m418.58,175.05h-47.65v-28.13h47.65c7.77,0,14.06,6.3,14.06,14.06h0c0,7.77-6.3,14.06-14.06,14.06Z"/>
      <g>
        <g class="cls-63">
          <path class="cls-39" d="m312.58,18.37l-17.43,37.49c24,21.61,60.14,48.15,104.52,62.23l.04-43.79c-41.93-7.4-87.13-55.93-87.13-55.93Z"/>
        </g>
        <g class="cls-34">
          <path class="cls-38" d="m487.05,18.36s-45.21,48.53-87.14,55.93l.04,43.8c44.39-14.08,80.53-40.62,104.53-62.24l-17.43-37.49Z"/>
        </g>
      </g>
      <path class="cls-53" d="m489.62,23.89l-2.57-5.53s-12.99-16.65-87.26-13.99h0c-74.23-2.64-87.21,14-87.21,14l-2.57,5.53c37.06,43.66,89.83,60.42,89.83,60.42v-.03c1.73-.56,53.34-17.47,89.78-60.4Z"/>
      <g class="cls-52">
        <path class="cls-40" d="m1382.52,66.58c-11.91-14.25-30.69-36-36.1-38.21-15.58-6.34-58.37-4.65-59.12-4.62-.76-.03-43.55-1.72-59.12,4.62-5.41,2.2-24.18,23.94-36.09,38.19l11.98-1.66c55.22-7.65,111.24-7.65,166.46.01l12,1.66Z"/>
      </g>
      <path class="cls-61" d="m158.33,1015.02c-2.45,45.53-2.48,82.04-1.92,106.95,68.14-26.42,121.02-1.98,153.96,24.03,8.77-34.09,19.64-72.71,30.75-110.65-65.55-44.87-138.34-34.16-182.79-20.33Z"/>
      <g class="cls-57">
        <path class="cls-61" d="m334.32,1037.81c-59.53-38.78-124.63-31.94-170.39-18.41-2.03,39.66-2.19,72.04-1.85,94.3,18.6-6.31,36.06-8.96,52.26-8.96,38.3,0,69.6,14.84,92.58,31.35,7.35-28.09,16.55-61.09,27.41-98.29Z"/>
      </g>
      <g>
        <path class="cls-61" d="m641.3,1015c2.45,45.53,2.48,82.04,1.92,106.95-68.14-26.42-121.02-1.98-153.96,24.03-8.77-34.09-19.64-72.71-30.75-110.65,65.55-44.87,138.34-34.16,182.79-20.33Z"/>
        <g class="cls-51">
          <path class="cls-61" d="m465.3,1037.8c59.53-38.78,124.63-31.94,170.39-18.41,2.03,39.66,2.19,72.04,1.85,94.3-18.6-6.31-36.06-8.96-52.26-8.96-38.3,0-69.6,14.84-92.58,31.35-7.35-28.09-16.55-61.09-27.41-98.29Z"/>
        </g>
      </g>
      <circle class="cls-10" cx="223.66" cy="1163.71" r="42.3"/>
      <circle class="cls-10" cx="575.97" cy="1163.7" r="42.3"/>
    </g>
    <g id="colorTwo">
      <polygon class="cls-66" points="222.61 1192.02 203.58 1148.56 241.64 1148.56 222.61 1192.02"/>
      <polygon class="cls-66" points="577.02 1192.01 596.05 1148.55 557.99 1148.55 577.02 1192.01"/>
      <path class="cls-36" d="m675.98,1256.07c45.49,54.44,2.57,111.12,2.57,111.12h0c-35.03-5.99-35.03-53.36-35.03-79.93,0-11.82,17.5-23.43,32.46-31.19Z"/>
      <path class="cls-66" d="m123.65,1256.09c-45.49,54.44-2.57,111.12-2.57,111.12h0c35.03-5.99,35.03-53.36,35.03-79.93,0-11.82-17.5-23.43-32.46-31.19Z"/>
      <g>
        <path class="cls-36" d="m261.96,204.21c-14.11-32.63-34-33.51-49.96-32.88-8.56.34-21.98,3.57-25.98,28.88-8.62,54.62-82.1,191.01-94.92,225.8-13.99,37.97-29.97,288.75-29.97,288.75l24.61,4.4c38.99-146.61,44.83-248.69,44.83-248.69,50.96-34.47,70.44-143.88,70.44-143.88,1-48.46,69.3-103.08,60.95-122.39Z"/>
        <path class="cls-36" d="m84.11,725.26c.83-3.06.83-3.07,1.63-6.09,0,0-13.61-8.28-38.77-12.5-41.93-7.04-42.8,9.1-42.8,9.1,33.97,29.97,79.93,9.49,79.93,9.49Z"/>
        <path class="cls-36" d="m537.67,204.2c14.11-32.63,34-33.51,49.96-32.88,8.56.34,21.98,3.57,25.98,28.88,8.62,54.62,82.1,191.01,94.92,225.8,13.99,37.97,29.97,288.75,29.97,288.75l-24.61,4.4c-38.99-146.61-44.83-248.69-44.83-248.69-50.96-34.47-70.44-143.88-70.44-143.88-1-48.46-69.3-103.08-60.95-122.39Z"/>
        <path class="cls-36" d="m715.52,725.25c-.83-3.06-.83-3.07-1.63-6.09,0,0,13.61-8.28,38.77-12.5,41.93-7.04,42.8,9.1,42.8,9.1-33.97,29.97-79.93,9.49-79.93,9.49Z"/>
      </g>
      <g>
        <path class="cls-36" d="m33.99,419.09l-11.3-16.49-1.71,5.94c-2.63,9.12-4.22,18.54-4.73,28.01l-.34,6.29,13.4-6.37c3.13-1.49,5.44-4.26,6.34-7.61.9-3.35.3-6.91-1.66-9.76Z"/>
        <path class="cls-36" d="m23.78,409.35c-2.57,8.91-4.12,18.09-4.62,27.36l-.07,1.39,8.97-4.27c4.95-2.35,6.62-8.57,3.53-13.1l-7.8-11.39Z"/>
      </g>
      <path class="cls-36" d="m669.56,123.27l2.79,7.48-6.23.82c-5.68.75-11.42-.95-15.77-4.67l-5.56-4.76c-4.48-3.83-7.06-9.44-7.06-15.33v-8.3c27.57,7.76,31.83,24.75,31.83,24.75Z"/>
      <path class="cls-36" d="m130.07,123.28l-2.79,7.48,6.23.82c5.68.75,11.42-.95,15.77-4.67l5.56-4.76c4.48-3.83,7.06-9.44,7.06-15.33v-8.3c-27.57,7.76-31.83,24.75-31.83,24.75Z"/>
      <g>
        <path class="cls-66" d="m1458.77,500.14l-38.65,50.28c-9.29,12.08-22.81,20.18-37.84,22.66-23.14,3.81-57.12,8.88-94.99,10.38-37.86-1.5-71.84-6.57-94.99-10.38-15.03-2.48-28.56-10.58-37.84-22.66l-38.65-50.28c2.07,42.98,1.62,85.57-4.51,116.07l49.8,44.73c4.09,3.68,9.07,6.25,14.45,7.43,45.96,10.11,81.69,14.47,111.73,15.78h0s.01,0,.02,0c0,0,.01,0,.02,0h0c30.03-1.31,65.76-5.67,111.73-15.78,5.37-1.18,10.35-3.75,14.44-7.43l49.8-44.73c-6.12-30.5-6.58-73.09-4.51-116.07Z"/>
        <g class="cls-11">
          <path class="cls-66" d="m1397.53,661.54c4.17-.92,8.07-2.92,11.27-5.8l46.86-42.09c-4.14-23-5.72-53.81-4.72-91.84l-25.28,32.88c-10.41,13.54-25.42,22.53-42.25,25.3-24.82,4.09-58.14,8.97-95.85,10.47h-.28s-.28,0-.28,0c-37.71-1.49-71.03-6.38-95.85-10.47-16.84-2.77-31.85-11.76-42.25-25.3l-25.28-32.88c1,38.04-.58,68.84-4.72,91.84l46.86,42.09c3.2,2.88,7.1,4.88,11.27,5.8,41.12,9.04,77.19,14.15,110.26,15.61,33.06-1.46,69.12-6.57,110.22-15.61Z"/>
        </g>
      </g>
      <g>
        <path class="cls-36" d="m1652.23,409.98c-57.72,4.8-91.52,35.62-108.47,57.45-7.88-10.74-18.25-25.94-28.8-44.44,33.4-44.42,84.76-57.92,114.6-62.01l22.67,48.99Z"/>
        <g class="cls-46">
          <path class="cls-36" d="m1626.89,365.92l18.61,40.21c-50.7,5.99-82.71,31.46-101.54,53.89-8.29-11.62-16.35-24.16-23.6-36.67,31.57-40.11,78.83-53.18,106.53-57.43Z"/>
        </g>
      </g>
      <path class="cls-36" d="m1674.37,467.86c-.71,7.42-1.87,19.28-3.34,33.53l-26.29-17.37c-7.05-4.66-7.01-13.46.08-18.08l25.61-16.68,1.24,2.68c2.3,4.97,3.24,10.46,2.72,15.91Z"/>
      <path class="cls-36" d="m900.22,467.86c.71,7.42,1.87,19.28,3.34,33.53l26.3-17.37c7.05-4.66,7.01-13.46-.08-18.08l-25.61-16.68-1.24,2.68c-2.3,4.97-3.24,10.46-2.72,15.91Z"/>
      <path class="cls-66" d="m1569.92,1206.17c2.88,2.69,4.55,6.42,4.65,10.36l2.23,85.73c.12,4.5-1.83,8.8-5.29,11.68l-.64.53-23.41-129.31,22.46,21.01Z"/>
      <path class="cls-36" d="m1004.66,1206.17c-2.88,2.69-4.55,6.42-4.66,10.36l-2.23,85.73c-.12,4.5,1.83,8.8,5.29,11.68l.64.53,23.42-129.31-22.46,21.01Z"/>
      <g>
        <path class="cls-36" d="m922.35,409.98c57.72,4.8,91.52,35.62,108.47,57.45,7.88-10.74,18.25-25.94,28.8-44.44-33.4-44.42-84.76-57.92-114.6-62.01l-22.67,48.99Z"/>
        <g class="cls-65">
          <path class="cls-36" d="m947.7,365.92l-18.61,40.21c50.7,5.99,82.71,31.46,101.54,53.89,8.29-11.62,16.35-24.16,23.6-36.67-31.57-40.11-78.83-53.18-106.53-57.43Z"/>
        </g>
      </g>
      <path class="cls-66" d="m1502.99,112.48c-1.91-2.79-2.2-6.33-1.5-10.18l15.51,1.5s34.84,26.93,34.5,57.18c-25.96-16.88-42.79-40.14-48.5-48.51Z"/>
      <path class="cls-66" d="m1384.4,121.8h-194.22c-7.43,0-12.97,6.84-11.42,14.11,10.55,49.56,48.03,225.04,108.52,261.08v.02s.01,0,.02-.01c0,0,.01,0,.02.01v-.02c60.49-36.04,97.96-211.52,108.52-261.08,1.55-7.27-3.99-14.11-11.42-14.11Z"/>
      <path class="cls-36" d="m1071.6,112.48c1.91-2.79,2.2-6.33,1.5-10.18l-15.51,1.5s-34.84,26.93-34.5,57.18c25.96-16.88,42.79-40.14,48.5-48.51Z"/>
      <g>
        <path class="cls-66" d="m765.64,419.08l11.3-16.49,1.71,5.94c2.63,9.12,4.22,18.54,4.73,28.02l.34,6.29-13.4-6.37c-3.13-1.49-5.44-4.26-6.34-7.61-.9-3.35-.3-6.91,1.66-9.76Z"/>
        <path class="cls-66" d="m775.85,409.33c2.57,8.91,4.12,18.09,4.62,27.36l.07,1.39-8.97-4.27c-4.95-2.35-6.62-8.57-3.53-13.1l7.8-11.39Z"/>
      </g>
    </g>
    <g id="logosColors">
      <g>
        <circle class="cls-17" cx="297.36" cy="302.43" r="22.49"/>
        <text class="cls-32" transform="translate(277.95 309.08) scale(1.54 .89)"><tspan x="0" y="0">ME</tspan></text>
        <text class="cls-15" transform="translate(323.46 324.18) scale(.25)"><tspan x="0" y="0">MOBI</tspan></text>
        <text class="cls-23" transform="translate(327.62 344.86) scale(.25)"><tspan x="0" y="0">ENTERPRISES</tspan></text>
        <circle class="cls-18" cx="512.75" cy="268.19" r="4.78"/>
        <text class="cls-29" transform="translate(509.98 271.23) scale(.25)"><tspan x="0" y="0">R</tspan></text>
      </g>
      <g>
        <circle class="cls-17" cx="319.97" cy="51.39" r="5.5"/>
        <text class="cls-31" transform="translate(315.32 49.56) rotate(40.01) scale(1.54 .89)"><tspan x="0" y="0">ME</tspan></text>
        <text class="cls-13" transform="translate(321.48 59.56) rotate(40.01) scale(.25)"><tspan x="0" y="0">MOBI</tspan></text>
        <text class="cls-20" transform="translate(319.01 64.09) rotate(40.01) scale(.25)"><tspan x="0" y="0">ENTERPRISES</tspan></text>
        <circle class="cls-18" cx="365.74" cy="78.86" r="1.17"/>
        <text class="cls-33" transform="translate(364.78 78.98) rotate(40.01) scale(.25)"><tspan x="0" y="0">R</tspan></text>
      </g>
      <g>
        <circle class="cls-17" cx="440.8" cy="85.04" r="5.5"/>
        <text class="cls-31" transform="translate(437.98 89.26) rotate(-37.27) scale(1.54 .89)"><tspan x="0" y="0">ME</tspan></text>
        <text class="cls-13" transform="translate(449.08 85.45) rotate(-37.27) scale(.25)"><tspan x="0" y="0">MOBI</tspan></text>
        <text class="cls-20" transform="translate(452.96 88.86) rotate(-37.27) scale(.25)"><tspan x="0" y="0">ENTERPRISES</tspan></text>
        <circle class="cls-18" cx="477.68" cy="46.45" r="1.17"/>
        <text class="cls-33" transform="translate(477.57 47.5) rotate(-37.27) scale(.25)"><tspan x="0" y="0">R</tspan></text>
      </g>
      <g>
        <circle class="cls-17" cx="1229.3" cy="87.09" r="11.96"/>
        <text class="cls-28" transform="translate(1218.97 90.63) scale(1.54 .89)"><tspan x="0" y="0">ME</tspan></text>
        <text class="cls-12" transform="translate(1243.18 98.66) scale(.25)"><tspan x="0" y="0">MOBI</tspan></text>
        <text class="cls-21" transform="translate(1245.39 109.66) scale(.25)"><tspan x="0" y="0">ENTERPRISES</tspan></text>
        <circle class="cls-18" cx="1343.86" cy="68.88" r="2.54"/>
        <text class="cls-26" transform="translate(1342.39 70.49) scale(.25)"><tspan x="0" y="0">R</tspan></text>
      </g>
      <g>
        <circle class="cls-17" cx="976.32" cy="342.06" r="5.5"/>
        <text class="cls-31" transform="translate(976.21 347.14) rotate(-69.88) scale(1.54 .89)"><tspan x="0" y="0">ME</tspan></text>
        <text class="cls-13" transform="translate(983.51 337.95) rotate(-69.88) scale(.25)"><tspan x="0" y="0">MOBI</tspan></text>
        <text class="cls-20" transform="translate(988.61 338.74) rotate(-69.88) scale(.25)"><tspan x="0" y="0">ENTERPRISES</tspan></text>
        <circle class="cls-18" cx="986.59" cy="289.67" r="1.17"/>
        <text class="cls-33" transform="translate(987.04 290.63) rotate(-69.88) scale(.25)"><tspan x="0" y="0">R</tspan></text>
      </g>
      <g>
        <circle class="cls-17" cx="1580.37" cy="297.1" r="5.5"/>
        <text class="cls-31" transform="translate(1576.98 293.44) rotate(65.56) scale(1.54 .89)"><tspan x="0" y="0">ME</tspan></text>
        <text class="cls-13" transform="translate(1578.23 305.11) rotate(65.56) scale(.25)"><tspan x="0" y="0">MOBI</tspan></text>
        <text class="cls-20" transform="translate(1574.04 308.13) rotate(65.56) scale(.25)"><tspan x="0" y="0">ENTERPRISES</tspan></text>
        <circle class="cls-18" cx="1609.81" cy="341.62" r="1.17"/>
        <text class="cls-33" transform="translate(1608.92 341.31) rotate(65.56) scale(.25)"><tspan x="0" y="0">R</tspan></text>
      </g>
      <g>
        <circle class="cls-17" cx="702" cy="251.05" r="5.5"/>
        <text class="cls-31" transform="translate(698.57 247.36) rotate(65.9) scale(1.54 .89)"><tspan x="0" y="0">ME</tspan></text>
        <text class="cls-13" transform="translate(699.74 259.04) rotate(65.9) scale(.25)"><tspan x="0" y="0">MOBI</tspan></text>
        <text class="cls-20" transform="translate(695.54 262.04) rotate(65.9) scale(.25)"><tspan x="0" y="0">ENTERPRISES</tspan></text>
        <circle class="cls-18" cx="731.18" cy="295.75" r="1.17"/>
        <text class="cls-33" transform="translate(730.22 295.42) rotate(65.9) scale(.25)"><tspan x="0" y="0">R</tspan></text>
      </g>
      <g>
        <circle class="cls-17" cx="79.1" cy="303.97" r="5.5"/>
        <text class="cls-31" transform="translate(78.99 309.05) rotate(-69.88) scale(1.54 .89)"><tspan x="0" y="0">ME</tspan></text>
        <text class="cls-13" transform="translate(86.29 299.86) rotate(-69.88) scale(.25)"><tspan x="0" y="0">MOBI</tspan></text>
        <text class="cls-20" transform="translate(91.39 300.65) rotate(-69.88) scale(.25)"><tspan x="0" y="0">ENTERPRISES</tspan></text>
        <circle class="cls-18" cx="89.37" cy="251.58" r="1.17"/>
        <text class="cls-33" transform="translate(89.83 252.54) rotate(-69.88) scale(.25)"><tspan x="0" y="0">R</tspan></text>
      </g>
      <g>
        <circle class="cls-17" cx="1520.04" cy="1219.13" r="8.09"/>
        <text class="cls-27" transform="translate(1516.22 1212.77) rotate(77.47) scale(1.54 .89)"><tspan x="0" y="0">ME</tspan></text>
        <text class="cls-14" transform="translate(1514.47 1229.93) rotate(77.47) scale(.25)"><tspan x="0" y="0">MOBI</tspan></text>
        <text class="cls-22" transform="translate(1507.54 1233) rotate(77.47) scale(.25)"><tspan x="0" y="0">ENTERPRISES</tspan></text>
        <circle class="cls-18" cx="1548.86" cy="1292.07" r="1.72"/>
        <text class="cls-30" transform="translate(1547.61 1291.28) rotate(77.47) scale(.25)"><tspan x="0" y="0">R</tspan></text>
      </g>
      <g>
        <circle class="cls-17" cx="1037.61" cy="1289.89" r="8.09"/>
        <text class="cls-27" transform="translate(1038.18 1297.3) rotate(-75.61) scale(1.54 .89)"><tspan x="0" y="0">ME</tspan></text>
        <text class="cls-14" transform="translate(1047.51 1282.79) rotate(-75.61) scale(.25)"><tspan x="0" y="0">MOBI</tspan></text>
        <text class="cls-22" transform="translate(1055.08 1283.19) rotate(-75.61) scale(.25)"><tspan x="0" y="0">ENTERPRISES</tspan></text>
        <circle class="cls-18" cx="1044.93" cy="1211.8" r="1.72"/>
        <text class="cls-30" transform="translate(1045.74 1213.09) rotate(-75.61) scale(.25)"><tspan x="0" y="0">R</tspan></text>
      </g>
    </g>
  </g>
</svg>